. 
  
http://www.torrenting.com/        :     Greatest Movie Tracker on The Net!!!
 
http://www.Torrenting.com          :     Once & For all ;)


               www . Torrenting . Com 

(((((((((((((= Enjoy No RAR releases =))))))))))))))))))))


...................................NFO:....................................

.[img]http://img171.imageshack.us/img171/2549/gnomeoandjulietbluray.jpg[/img]

[color=blue][size=5][b]Gnomeo.and.Juliet.2011.BDRip.XVID.AC3.HQ.Hive-CM8[/b][/size][/color]


[b]Thx Hive


CM8 Doing It Right The First Time :D


Source Bluray

Video: 720x384 @bitrate 1800 2pass
Audio: DTS to AC3 5.1 @448
Sample: yes included
Subs: yes english in srt /subs[/b]


[url]http://www.imdb.com/title/tt0377981/[/url]


General
Complete name                    : Gnomeo.and.Juliet.2011.BDRip.XVID.AC3.HQ.Hive-CM8.avi
Format                           : AVI
Format/Info                      : Audio Video Interleave
File size                        : 1.32 GiB
Duration                         : 1h 23mn
Overall bit rate                 : 2 259 Kbps
Writing application              : Nandub v1.0rc2
Writing library                  : Nandub build 1853/release

Video
ID                               : 0
Format                           : MPEG-4 Visual
Format profile                   : Advanced Simple@L5
Format settings, BVOP            : 1
Format settings, QPel            : Yes
Format settings, GMC             : No warppoints
Format settings, Matrix          : Default (H.263)
Muxing mode                      : Packed bitstream
Codec ID                         : XVID
Codec ID/Hint                    : XviD
Duration                         : 1h 23mn
Bit rate                         : 1 801 Kbps
Width                            : 720 pixels
Height                           : 384 pixels
Display aspect ratio             : 1.850
Frame rate                       : 23.976 fps
Color space                      : YUV
Chroma subsampling               : 4:2:0
Bit depth                        : 8 bits
Scan type                        : Progressive
Compression mode                 : Lossy
Bits/(Pixel*Frame)               : 0.272
Stream size                      : 1.05 GiB (80%)
Writing library                  : XviD 1.2.1 (UTC 2008-12-04)

Audio
ID                               : 1
Format                           : AC-3
Format/Info                      : Audio Coding 3
Mode extension                   : CM (complete main)
Codec ID                         : 2000
Duration                         : 1h 23mn
Bit rate mode                    : Constant
Bit rate                         : 448 Kbps
Channel(s)                       : 6 channels
Channel positions                : Front: L C R, Side: L R, LFE
Sampling rate                    : 48.0 KHz
Bit depth                        : 16 bits
Compression mode                 : Lossy
Stream size                      : 269 MiB (20%)
Alignment                        : Split accross interleaves
Interleave, duration             : 42 ms (1.00 video frame)
Interleave, preload duration     : 500 ms



James McAvoy	 ... 	Gnomeo (voice)
Emily Blunt	... 	Juliet (voice)
Michael Caine	... 	Lord Redbrick (voice)
Jim Cummings	... 	Featherstone (voice)
Maggie Smith	... 	Lady Bluebury (voice)
Jason Statham	... 	Tybalt (voice)
Ozzy Osbourne	... 	Fawn (voice)
Stephen Merchant	... 	Paris (voice)
Patrick Stewart	... 	Bill Shakespeare (voice)
Hulk Hogan	... 	Terrafirminator V.O. (voice)
Dolly Parton	... 	Dolly Gnome (voice)


The neighboring gardens of Montague and Capulet are at war, but the gnomes, Gnomeo and Juliet, are in love. 
 

[img]http://img33.imageshack.us/img33/4940/11111u.png[/img]
[img]http://img830.imageshack.us/img830/1959/72442799.png[/img]
[img]http://img859.imageshack.us/img859/6718/12562404.png[/img]
[img]http://img189.imageshack.us/img189/4143/111uf.png[/img]
[img]http://img829.imageshack.us/img829/4511/1111aa.png[/img]





ViSiON,LUSi,SANTi,MAGNET,THC,T0XiCiNK,LKRG,IMAGiNE,WBZ,FLAWL3SS,NOVA
Vik,OneTwo,Rapeseed,D2U,SAFC,goldadvance,MEMORY100,KaN1vE,Unevano,Pinnz,Wayne,Mr Hive
and all P2P groups 
Great Work Guys :D

CM8@hushmail.com